<?xml version="1.0" standalone="no"?>
<!DOCTYPE svg PUBLIC "-//W3C//DTD SVG 20010904//EN"
 "http://www.w3.org/TR/2001/REC-SVG-20010904/DTD/svg10.dtd">
<svg version="1.0" xmlns="http://www.w3.org/2000/svg"
 width="2363.000000pt" height="2363.000000pt" viewBox="0 0 2363.000000 2363.000000"
 preserveAspectRatio="xMidYMid meet">

<g transform="translate(0.000000,2363.000000) scale(0.100000,-0.100000)"
fill="#ffffff" stroke="none">
<path d="M10840 23619 c-552 -60 -993 -137 -1475 -259 -2027 -512 -3841 -1660
-5197 -3290 -380 -457 -730 -970 -1042 -1525 -106 -187 -355 -699 -449 -920
-459 -1081 -716 -2206 -778 -3405 -14 -282 -6 -964 15 -1225 93 -1130 338
-2140 763 -3140 94 -221 343 -732 449 -920 469 -836 1008 -1550 1669 -2210
1666 -1667 3843 -2679 6185 -2875 501 -42 1148 -42 1665 1 2010 163 3949 958
5507 2256 461 384 909 832 1288 1288 1238 1487 2009 3286 2229 5205 49 428 56
558 56 1140 0 594 -7 722 -60 1175 -181 1531 -707 2972 -1560 4276 -625 955
-1478 1856 -2398 2533 l-137 101 72 8 c40 4 273 6 518 4 497 -3 509 -5 588
-73 79 -68 275 -381 472 -756 76 -144 98 -178 115 -178 20 0 20 3 13 118 -4
64 -12 143 -18 175 -16 81 -83 242 -227 542 -137 285 -163 350 -163 404 0 55
39 127 122 226 189 229 419 527 415 539 -3 7 -22 21 -42 31 -68 31 -98 20
-375 -137 -140 -80 -304 -172 -365 -206 -60 -33 -143 -81 -184 -106 -127 -78
-143 -81 -406 -80 -217 2 -686 21 -694 30 -2 2 40 82 93 178 191 346 228 452
271 779 19 146 15 190 -21 213 -31 21 -62 21 -259 0 -88 -9 -533 -43 -990 -76
-963 -70 -1522 -113 -1818 -140 l-210 -19 -145 39 c-386 105 -840 191 -1351
257 l-206 27 -925 2 c-509 1 -963 -2 -1010 -7z m4440 -755 c115 -33 186 -86
229 -171 69 -137 8 -237 -197 -325 -71 -30 -85 -32 -187 -33 -95 0 -122 4
-199 29 -49 16 -107 43 -130 61 -157 119 -99 346 110 424 110 42 258 47 374
15z m1600 -1612 c847 -575 1577 -1270 2186 -2082 972 -1297 1581 -2838 1753
-4440 40 -376 46 -496 46 -990 0 -494 -6 -615 -46 -990 -125 -1163 -479 -2295
-1042 -3335 -339 -626 -823 -1302 -1300 -1815 l-70 -75 7 40 c3 22 15 92 26
155 45 252 97 792 121 1245 13 253 7 1043 -10 1255 -96 1177 -273 1944 -638
2748 -162 360 -351 708 -530 981 -113 173 -444 621 -628 851 -210 263 -623
680 -1210 1221 -603 556 -799 707 -1685 1298 -646 431 -1032 672 -1595 998
-620 359 -1359 747 -1803 947 -125 57 -651 350 -912 509 -259 158 -602 402
-704 502 -116 113 -117 265 -2 360 102 83 451 217 729 279 177 40 332 61 915
126 1068 118 1128 121 2692 115 1463 -5 1814 -13 2450 -51 139 -8 272 -12 295
-9 154 24 354 129 555 293 l85 69 80 -50 c44 -27 150 -97 235 -155z m-11398
-1158 c206 -194 561 -410 1078 -654 129 -61 336 -159 460 -218 461 -218 1440
-711 1895 -955 160 -86 491 -275 745 -427 85 -51 227 -135 315 -188 404 -242
1450 -933 1725 -1141 475 -358 953 -755 1370 -1137 174 -159 893 -881 1101
-1105 296 -318 524 -603 850 -1059 262 -366 425 -629 595 -960 21 -41 85 -138
142 -215 58 -77 161 -225 230 -330 194 -293 347 -434 611 -567 63 -32 167 -74
232 -95 l118 -38 6 -71 c12 -121 -18 -281 -70 -385 -74 -146 -252 -265 -426
-286 -59 -7 -60 14 8 -208 127 -417 392 -1099 622 -1600 48 -104 49 -110 33
-129 -35 -39 -126 -88 -221 -119 l-98 -32 350 -753 c192 -414 347 -755 344
-758 -5 -5 -404 58 -524 82 l-31 6 89 -293 c49 -162 112 -372 141 -467 l52
-172 -29 -30 c-16 -17 -61 -52 -100 -80 -159 -109 -302 -160 -453 -160 -177 0
-315 63 -463 210 -206 205 -327 470 -414 904 l-31 160 -72 -105 c-122 -180
-280 -368 -457 -544 -246 -246 -493 -438 -792 -614 -880 -518 -2045 -675
-3239 -436 -181 37 -534 134 -759 210 -627 212 -1242 581 -1748 1049 -92 86
-278 284 -346 369 -29 37 -30 38 -35 15 -3 -12 -21 -103 -41 -201 -134 -662
-345 -1016 -677 -1135 -101 -36 -257 -38 -368 -3 -128 39 -291 134 -368 214
l-33 34 142 531 c79 293 140 534 138 537 -3 2 -122 -16 -265 -40 -142 -25
-266 -44 -275 -43 -12 2 66 178 334 756 192 414 347 755 344 758 -3 3 -31 12
-64 21 -82 21 -173 66 -221 110 l-42 38 56 95 c111 190 263 519 386 840 l59
155 10 185 c10 207 21 317 50 500 11 69 21 133 22 143 1 14 -13 24 -55 42
-208 85 -325 259 -345 514 -3 43 -3 103 1 133 l7 56 62 17 c250 69 520 227
687 401 93 97 101 108 203 272 391 634 1005 1171 1762 1542 450 221 846 342
1360 417 237 34 757 9 1083 -53 279 -52 737 -210 1102 -379 286 -132 632 -330
994 -569 173 -113 192 -123 215 -114 14 6 59 23 100 38 l75 27 -375 375 c-409
411 -524 517 -794 740 -99 82 -227 190 -284 241 -402 357 -825 599 -1334 766
-197 65 -348 101 -619 151 -329 60 -372 63 -738 57 -313 -6 -497 -19 -688 -51
-48 -8 -127 -20 -177 -26 -513 -63 -1316 -356 -1916 -699 -837 -479 -1580
-1193 -2046 -1969 -463 -770 -706 -1586 -754 -2536 -32 -624 73 -1422 275
-2091 25 -82 44 -151 42 -152 -2 -2 -55 52 -118 119 -1292 1385 -2104 3072
-2367 4923 -98 685 -117 1418 -55 2100 175 1940 960 3753 2257 5212 129 144
365 393 374 393 3 0 37 -30 75 -66z"/>
<path d="M11155 13073 c-48 -54 -103 -120 -120 -148 -68 -103 -139 -148 -255
-160 -115 -11 -163 -30 -206 -79 -22 -24 -47 -55 -56 -69 -10 -14 -52 -44 -95
-67 -95 -50 -175 -126 -211 -200 -22 -46 -27 -69 -27 -135 0 -92 24 -157 78
-213 55 -58 61 -58 98 0 38 58 103 95 188 105 49 6 52 4 86 -31 19 -20 40 -56
46 -79 50 -187 73 -231 149 -286 25 -18 107 -51 208 -84 203 -67 228 -78 272
-116 l35 -30 -30 -58 c-43 -84 -163 -201 -248 -242 -136 -66 -403 -94 -540
-57 -228 62 -395 237 -621 650 -123 225 -148 261 -242 353 -131 129 -254 203
-394 239 -104 26 -271 16 -381 -25 -147 -54 -231 -111 -364 -245 -132 -133
-203 -229 -414 -558 -170 -266 -240 -364 -325 -455 -121 -130 -246 -212 -386
-254 -41 -12 -76 -23 -78 -24 -8 -7 49 -103 75 -126 98 -92 269 -110 513 -55
57 13 100 18 100 13 0 -18 -151 -489 -225 -702 -175 -502 -339 -909 -524
-1303 -45 -95 -79 -178 -75 -184 4 -5 27 -19 51 -30 70 -31 166 -27 287 12 54
17 100 29 102 27 3 -3 -141 -328 -320 -723 -179 -395 -323 -720 -320 -723 2
-3 110 11 239 30 129 19 235 31 235 27 0 -5 -74 -297 -165 -650 -91 -353 -164
-647 -161 -653 2 -6 35 -26 72 -45 52 -26 85 -34 140 -38 65 -4 79 -1 136 25
144 67 251 226 353 524 87 254 130 462 205 978 28 198 54 348 61 352 6 4 33
10 58 13 64 8 130 52 226 150 204 206 300 467 323 877 9 174 16 187 125 250
193 112 291 232 338 412 10 38 26 78 35 89 10 10 50 34 89 52 90 42 139 92
182 186 34 73 120 187 235 312 l53 56 353 111 c195 61 358 111 363 111 5 0 9
-32 9 -71 0 -99 30 -234 100 -454 105 -328 136 -475 146 -700 17 -352 -76
-683 -274 -980 -101 -151 -186 -268 -203 -278 -12 -8 -46 21 -170 145 -125
125 -167 161 -224 190 -93 48 -164 67 -262 72 -75 3 -84 6 -129 40 -69 53
-179 105 -249 118 -120 22 -211 -28 -233 -128 -8 -35 -6 -104 3 -104 2 0 27
11 57 25 97 45 176 27 212 -49 17 -35 21 -93 8 -111 -13 -19 -66 -51 -115 -69
-74 -28 -138 -84 -177 -157 -32 -59 -35 -71 -35 -149 0 -76 3 -93 32 -151 18
-36 41 -73 51 -82 18 -17 20 -14 41 60 13 43 32 93 43 111 25 41 76 80 114 88
l29 5 0 -123 c0 -134 6 -117 -80 -252 -15 -24 -20 -48 -20 -101 2 -155 122
-304 246 -305 35 0 99 17 99 27 0 2 -17 30 -39 61 -77 114 -83 139 -53 207
l18 40 62 -63 c76 -77 116 -95 203 -95 78 0 154 31 216 87 22 20 57 43 77 51
35 15 204 42 504 81 l134 17 51 -51 c29 -27 78 -64 109 -82 97 -53 129 -110
114 -201 l-6 -40 31 18 c42 25 103 92 130 145 27 52 37 181 19 247 -6 24 -26
59 -44 77 -24 25 -35 47 -40 80 -3 25 -3 50 0 55 3 5 25 21 50 35 160 94 329
-78 273 -279 -5 -20 -36 -77 -69 -125 -145 -217 -339 -373 -594 -482 -178 -75
-360 -170 -399 -208 -55 -53 -80 -106 -81 -172 -2 -158 78 -249 235 -268 l54
-7 3 -65 c8 -186 92 -269 240 -239 96 19 92 21 113 -48 49 -158 154 -215 299
-162 30 11 62 22 71 25 11 4 28 -11 54 -45 88 -121 205 -134 315 -35 40 37 44
38 54 20 25 -43 94 -122 126 -143 36 -25 106 -31 143 -12 12 6 41 30 64 52
l42 40 88 -40 c48 -23 102 -44 120 -48 46 -9 108 22 173 89 30 31 59 56 65 56
6 0 24 -13 39 -29 42 -43 119 -74 167 -66 53 9 108 53 144 113 21 37 34 50 45
45 61 -26 151 -52 180 -53 50 0 113 32 144 73 26 34 66 132 66 162 0 8 1 15 3
15 1 0 24 -7 51 -15 169 -51 293 46 290 227 l-1 66 63 12 c86 16 161 63 197
122 42 67 48 163 17 236 -27 62 -86 119 -160 155 -521 249 -621 307 -733 421
-34 35 -80 94 -101 131 -22 36 -57 81 -78 98 -27 23 -42 45 -48 72 -14 59 -12
161 4 199 35 84 128 145 200 132 38 -7 92 -60 102 -102 5 -20 0 -31 -25 -52
l-32 -27 -2 -135 c-2 -130 -1 -137 26 -192 24 -50 134 -168 155 -168 4 0 7 33
7 73 0 85 21 124 82 152 21 10 63 39 94 66 l56 48 154 6 c135 6 165 5 239 -13
47 -11 117 -23 155 -26 90 -9 145 -36 197 -97 94 -112 227 -123 355 -30 22 16
49 44 59 60 22 38 34 38 74 4 28 -23 31 -31 26 -61 -3 -19 -32 -76 -65 -128
l-60 -93 54 -11 c108 -22 198 29 256 145 53 108 44 214 -30 336 l-40 66 11
106 c12 114 13 116 65 96 62 -23 94 -71 122 -182 10 -39 23 -73 28 -74 13 -5
61 66 79 114 7 21 13 75 14 119 0 165 -52 246 -206 320 -127 60 -159 114 -118
200 36 76 115 94 212 49 30 -14 56 -25 58 -25 12 0 2 117 -12 146 -34 71 -126
105 -228 84 -68 -14 -177 -68 -256 -127 -50 -36 -62 -41 -130 -46 -181 -15
-321 -100 -516 -315 -53 -59 -100 -107 -105 -107 -16 0 -262 383 -314 490
-165 335 -204 694 -120 1095 15 69 57 217 95 330 60 181 102 350 125 511 4 25
11 52 15 59 7 11 75 -7 347 -94 l338 -109 135 -137 c134 -136 135 -138 158
-214 20 -67 30 -85 80 -135 56 -57 139 -101 192 -101 14 0 21 -9 25 -37 15
-94 30 -143 62 -213 49 -103 155 -208 273 -269 47 -24 86 -45 88 -46 12 -9 52
-192 52 -238 0 -100 20 -247 51 -366 79 -313 302 -604 500 -651 l48 -12 16
-71 c8 -40 35 -207 60 -372 105 -697 132 -788 299 -1035 130 -192 217 -255
351 -253 80 1 175 32 212 69 15 15 23 35 23 58 0 19 -43 167 -96 328 -52 161
-110 347 -129 413 -32 115 -75 316 -75 354 0 16 13 16 203 -10 111 -16 214
-30 228 -32 19 -2 25 1 22 10 -3 7 -146 329 -318 716 -172 386 -311 703 -310
705 2 2 36 -7 77 -19 104 -33 242 -33 316 0 28 13 52 27 52 32 0 5 -22 53 -49
107 -164 327 -381 876 -569 1437 -93 275 -202 621 -202 638 0 10 24 8 109 -9
330 -67 514 -19 560 144 l9 31 -102 41 c-166 66 -277 149 -397 296 -33 40
-166 232 -297 426 -131 194 -272 398 -314 454 -172 227 -338 332 -581 366
-155 22 -330 -20 -476 -115 -146 -95 -265 -239 -421 -507 -136 -235 -232 -358
-373 -476 -103 -87 -175 -125 -274 -148 -207 -47 -486 19 -630 148 -51 46
-123 165 -123 204 0 55 96 105 328 173 128 37 155 50 205 98 53 50 74 95 96
206 22 109 46 148 97 165 88 29 183 -13 235 -105 17 -30 34 -55 38 -55 4 0 28
21 53 48 66 66 92 129 91 217 -1 121 -64 225 -187 307 -33 23 -88 67 -121 98
-75 71 -184 126 -280 140 -127 20 -190 61 -260 170 -35 54 -102 135 -194 233
-16 16 -21 10 -86 -100 -38 -65 -79 -134 -91 -154 l-22 -35 -153 17 c-217 25
-309 25 -342 -1 -47 -37 -44 -68 22 -273 34 -102 61 -203 61 -224 0 -44 -35
-121 -121 -269 l-62 -105 -94 158 c-51 87 -97 169 -100 182 -4 15 11 78 37
165 124 403 127 393 -138 382 -92 -3 -198 -9 -237 -12 l-70 -5 -84 145 c-47
80 -88 146 -92 146 -4 0 -46 -44 -94 -97z"/>
<path d="M12625 2239 c-579 -79 -975 -523 -975 -1093 0 -587 419 -1037 1022
-1098 275 -28 583 49 809 202 528 359 622 1121 199 1618 -149 175 -369 301
-615 353 -106 23 -337 32 -440 18z m370 -235 c86 -16 201 -62 293 -116 72 -42
227 -197 270 -270 101 -170 137 -315 129 -512 -6 -155 -22 -217 -87 -351 -107
-221 -295 -376 -547 -451 -116 -35 -329 -45 -445 -21 -335 70 -591 308 -680
633 -17 65 -21 106 -21 229 0 134 2 159 26 236 34 111 66 185 114 256 200 301
557 440 948 367z"/>
<path d="M5730 2215 c-362 -69 -570 -314 -547 -645 11 -153 62 -265 172 -376
106 -107 210 -170 459 -278 226 -99 296 -159 296 -253 0 -58 -32 -100 -98
-131 -52 -25 -67 -27 -172 -26 -174 3 -328 50 -525 162 -55 31 -103 59 -108
60 -4 2 -6 -114 -5 -258 l3 -262 75 -30 c104 -42 286 -93 405 -114 120 -21
378 -24 475 -6 292 56 493 212 566 436 23 68 27 99 27 196 0 138 -20 210 -89
312 -84 124 -205 208 -534 371 -293 146 -344 192 -325 294 9 47 62 99 117 114
51 13 191 13 255 -1 112 -25 299 -102 383 -159 14 -10 42 -28 63 -40 l37 -23
0 251 0 251 -57 29 c-84 42 -219 88 -331 112 -128 27 -431 35 -542 14z"/>
<path d="M20551 2188 c-10 -24 -224 -508 -475 -1076 -251 -568 -456 -1035
-456 -1037 0 -3 55 -5 123 -5 l122 0 151 343 151 342 494 0 493 0 155 -342
155 -343 124 0 c68 0 122 4 120 9 -1 4 -221 490 -488 1079 l-485 1071 -83 1
-83 0 -18 -42z m303 -777 c108 -239 195 -436 193 -438 -2 -2 -179 -2 -394 -1
l-389 3 177 405 c200 455 208 474 213 469 2 -2 92 -199 200 -438z"/>
<path d="M9620 1145 l0 -1075 120 0 120 0 0 530 c0 292 3 530 6 530 3 0 252
-238 554 -530 l550 -530 162 0 163 0 -45 44 c-25 24 -261 252 -525 506 -264
255 -502 484 -528 510 l-49 47 463 494 c254 272 473 506 487 522 l26 27 -150
0 -149 -1 -480 -509 -480 -510 -3 510 -2 510 -120 0 -120 0 0 -1075z"/>
<path d="M14810 1145 l0 -1075 115 0 115 0 2 881 3 882 763 -882 764 -881 104
0 104 0 0 1075 0 1075 -115 0 -115 0 0 -881 c0 -510 -4 -879 -9 -877 -5 2
-350 397 -767 878 l-758 875 -103 3 -103 3 0 -1076z"/>
<path d="M17610 2216 c0 -2 182 -228 405 -502 l405 -499 0 -572 0 -573 120 0
120 0 0 578 1 577 404 494 c223 272 405 496 405 497 0 2 -64 4 -142 4 l-143 0
-324 -395 c-178 -217 -325 -395 -326 -395 -1 0 -145 178 -321 395 l-319 395
-142 0 c-79 0 -143 -2 -143 -4z"/>
<path d="M2160 1135 l0 -1065 320 0 320 0 0 1065 0 1065 -320 0 -320 0 0
-1065z"/>
<path d="M2984 1988 c51 -117 263 -603 471 -1081 l378 -867 214 2 214 3 440
990 c242 545 458 1029 479 1078 l39 87 -337 0 -337 0 -244 -603 c-134 -331
-247 -605 -250 -609 -3 -4 -114 266 -247 600 l-240 607 -336 3 -337 2 93 -212z"/>
<path d="M7497 2028 c-42 -95 -254 -575 -470 -1065 l-395 -893 332 0 331 0 86
213 86 212 465 3 464 2 84 -211 c47 -116 89 -213 95 -215 6 -2 155 -3 331 -2
l322 3 -467 1060 -467 1060 -360 3 -361 2 -76 -172z m597 -771 c80 -202 146
-372 146 -377 0 -6 -109 -10 -305 -10 -243 0 -305 3 -305 13 0 7 66 175 146
372 80 198 148 366 151 373 3 7 9 10 13 5 4 -4 73 -173 154 -376z"/>
</g>
</svg>
